<svg width="41" height="43" viewBox="0 0 41 43" fill="none" xmlns="http://www.w3.org/2000/svg">
<path d="M16.45 0.975006C17.25 0.975006 17.925 1.10001 18.475 1.32501C21.6 2.70001 22.7 6.925 22.725 11.25C24.2 9.20001 28.1 5.52501 31.25 5.52501C34.4 5.52501 38.6 7.35001 40.075 14.4C37.25 12.775 34.025 12.05 30.95 12.05C27.8 12.05 24.825 12.85 22.725 14.275C23.725 14 24.875 13.875 26.05 13.875C29.525 13.875 33.3 15 34.55 17.15C36.25 20.05 35.725 25.6 32.65 27.5C32.3 22.25 28.425 17.2 23.975 17.2C22.875 17.2 21.775 17.5 20.65 18.15C15 21.55 12.5 31.4 12.5 42.5H0C0 28.675 10.525 18.375 19.2 15.525C17.8 15.3 16.275 15.15 14.65 15.15C10.25 15.15 5.125 16.25 0 20C1.9 12.6 6.95 9.75001 11.725 9.75001C14.85 9.75001 17.85 11 19.725 12.975C18.075 7.37501 13.5 5.82501 9.525 5.82501C7.525 5.82501 5.65 6.22501 4.4 6.70001C6.675 3.47501 12.675 0.975006 16.45 0.975006ZM27.5 23.75C27.5 21.675 25.825 20 23.75 20C21.675 20 20 21.675 20 23.75C20 25.825 21.675 27.5 23.75 27.5C25.825 27.5 27.5 25.825 27.5 23.75Z" fill="white"/>
</svg>
