<svg width="188" height="19" viewBox="0 0 188 19" fill="none" xmlns="http://www.w3.org/2000/svg">
<path d="M14.616 4.416H9.432V18H5.496V4.416H0.288V0.959999H14.616V4.416ZM16.5383 18V0.959999H24.2183C25.0183 0.959999 25.7543 1.128 26.4263 1.464C27.1143 1.784 27.7063 2.224 28.2023 2.784C28.6983 3.328 29.0823 3.944 29.3543 4.632C29.6423 5.32 29.7863 6.016 29.7863 6.72C29.7863 7.424 29.6743 8.096 29.4503 8.736C29.2263 9.36 28.9063 9.928 28.4903 10.44C28.0743 10.936 27.5783 11.344 27.0023 11.664L30.7463 18H26.4023L23.1383 12.504H20.4743V18H16.5383ZM20.4743 9.072H24.0743C24.3943 9.072 24.6743 8.976 24.9143 8.784C25.1703 8.576 25.3783 8.296 25.5383 7.944C25.6983 7.592 25.7783 7.184 25.7783 6.72C25.7783 6.256 25.6823 5.856 25.4903 5.52C25.3143 5.168 25.0903 4.896 24.8183 4.704C24.5463 4.512 24.2583 4.416 23.9543 4.416H20.4743V9.072ZM36.9124 0.959999H41.1604L47.0164 18H42.9844L41.6644 14.184H36.3604L35.0644 18H31.0324L36.9124 0.959999ZM41.0164 11.472L39.0244 4.92L36.9844 11.472H41.0164ZM49.7837 0.959999L53.7917 13.392L57.7517 0.959999H61.9037L55.7117 18H51.8477L45.6077 0.959999H49.7837ZM75.4596 14.544V18H63.4836V0.959999H75.2436V4.416H67.4196V7.728H74.1396V10.92H67.4196V14.544H75.4596ZM77.8508 18V0.959999H81.7868V14.544H90.0428V18H77.8508ZM96.7883 18V0.959999H104.06C104.876 0.959999 105.62 1.128 106.292 1.464C106.98 1.784 107.572 2.224 108.068 2.784C108.564 3.328 108.948 3.944 109.22 4.632C109.492 5.32 109.628 6.024 109.628 6.744C109.628 7.72 109.396 8.648 108.932 9.528C108.484 10.408 107.852 11.128 107.036 11.688C106.236 12.232 105.284 12.504 104.18 12.504H100.724V18H96.7883ZM100.724 9.072H103.94C104.244 9.072 104.524 8.984 104.78 8.808C105.036 8.632 105.244 8.368 105.404 8.016C105.564 7.664 105.644 7.232 105.644 6.72C105.644 6.192 105.548 5.76 105.356 5.424C105.18 5.072 104.948 4.816 104.66 4.656C104.388 4.496 104.1 4.416 103.796 4.416H100.724V9.072ZM119.205 18.144C117.925 18.144 116.765 17.904 115.725 17.424C114.701 16.928 113.813 16.272 113.061 15.456C112.325 14.624 111.757 13.696 111.357 12.672C110.957 11.632 110.757 10.56 110.757 9.456C110.757 8.32 110.965 7.24 111.381 6.216C111.813 5.192 112.405 4.28 113.157 3.48C113.925 2.664 114.829 2.024 115.869 1.56C116.909 1.096 118.045 0.863999 119.277 0.863999C120.541 0.863999 121.685 1.112 122.709 1.608C123.749 2.088 124.637 2.744 125.373 3.576C126.125 4.408 126.701 5.344 127.101 6.384C127.501 7.408 127.701 8.456 127.701 9.528C127.701 10.664 127.493 11.744 127.077 12.768C126.661 13.792 126.069 14.712 125.301 15.528C124.533 16.328 123.629 16.968 122.589 17.448C121.565 17.912 120.437 18.144 119.205 18.144ZM114.765 9.504C114.765 10.16 114.861 10.8 115.053 11.424C115.245 12.032 115.525 12.576 115.893 13.056C116.277 13.536 116.749 13.92 117.309 14.208C117.869 14.496 118.509 14.64 119.229 14.64C119.981 14.64 120.637 14.496 121.197 14.208C121.757 13.904 122.221 13.504 122.589 13.008C122.957 12.512 123.229 11.96 123.405 11.352C123.597 10.728 123.693 10.096 123.693 9.456C123.693 8.8 123.597 8.168 123.405 7.56C123.213 6.952 122.925 6.408 122.541 5.928C122.157 5.432 121.685 5.048 121.125 4.776C120.565 4.504 119.933 4.368 119.229 4.368C118.477 4.368 117.821 4.512 117.261 4.8C116.717 5.088 116.253 5.48 115.869 5.976C115.501 6.456 115.221 7.008 115.029 7.632C114.853 8.24 114.765 8.864 114.765 9.504ZM129.976 18V0.959999H133.912V18H129.976ZM141.107 8.256V18H137.171V0.959999H140.291L148.187 10.992V0.959999H152.123V18H148.907L141.107 8.256ZM168.366 4.416H163.182V18H159.246V4.416H154.038V0.959999H168.366V4.416ZM180.512 5.952C180.464 5.872 180.296 5.752 180.008 5.592C179.72 5.416 179.36 5.232 178.928 5.04C178.496 4.848 178.024 4.68 177.512 4.536C177 4.392 176.488 4.32 175.976 4.32C175.304 4.32 174.784 4.44 174.416 4.68C174.048 4.904 173.864 5.256 173.864 5.736C173.864 6.12 174 6.424 174.272 6.648C174.56 6.872 174.968 7.072 175.496 7.248C176.024 7.408 176.672 7.6 177.44 7.824C178.528 8.112 179.472 8.464 180.272 8.88C181.072 9.28 181.68 9.8 182.096 10.44C182.528 11.08 182.744 11.928 182.744 12.984C182.744 13.944 182.568 14.76 182.216 15.432C181.864 16.088 181.384 16.624 180.776 17.04C180.184 17.44 179.504 17.736 178.736 17.928C177.968 18.104 177.176 18.192 176.36 18.192C175.528 18.192 174.672 18.112 173.792 17.952C172.928 17.776 172.096 17.536 171.296 17.232C170.496 16.912 169.76 16.528 169.088 16.08L170.816 12.648C170.88 12.728 171.088 12.88 171.44 13.104C171.792 13.312 172.224 13.536 172.736 13.776C173.264 14 173.848 14.2 174.488 14.376C175.128 14.552 175.776 14.64 176.432 14.64C177.136 14.64 177.656 14.528 177.992 14.304C178.344 14.08 178.52 13.768 178.52 13.368C178.52 12.936 178.336 12.6 177.968 12.36C177.616 12.12 177.128 11.904 176.504 11.712C175.896 11.52 175.192 11.304 174.392 11.064C173.352 10.744 172.488 10.384 171.8 9.984C171.128 9.584 170.624 9.096 170.288 8.52C169.968 7.944 169.808 7.224 169.808 6.36C169.808 5.16 170.088 4.152 170.648 3.336C171.224 2.504 171.992 1.88 172.952 1.464C173.912 1.032 174.96 0.816 176.096 0.816C176.896 0.816 177.664 0.911999 178.4 1.104C179.152 1.296 179.848 1.536 180.488 1.824C181.144 2.112 181.728 2.4 182.24 2.688L180.512 5.952ZM184.718 18V14.088H187.862V18H184.718Z" fill="white"/>
</svg>
