<?xml version="1.0" encoding="iso-8859-1"?>
<!-- Generator: Adobe Illustrator 21.0.0, SVG Export Plug-In . SVG Version: 6.00 Build 0)  -->
<svg version="1.1" id="landmark-city-world-london-paris-travel"
	 xmlns="http://www.w3.org/2000/svg" xmlns:xlink="http://www.w3.org/1999/xlink" x="0px" y="0px" viewBox="0 0 64 64"
	 style="enable-background:new 0 0 64 64;" xml:space="preserve">
<path d="M26,17c0-0.553-0.448-1-1-1h-3v-5c0-0.553-0.448-1-1-1h-1.323l-3.748-9.371C15.776,0.249,15.409,0,15,0
	s-0.776,0.249-0.929,0.629L10.323,10H9c-0.552,0-1,0.447-1,1v5H5c-0.552,0-1,0.447-1,1v18c0,0.553,0.448,1,1,1h1v26H0v2h7h16h1v-1
	v-1V36h1c0.552,0,1-0.447,1-1V17z M15,3.692L17.523,10h-5.046L15,3.692z M10,12h1h8h1v4H10V12z M22,62H8V36h14V62z M24,34h-1H7H6V18
	h3h12h3V34z"/>
<path d="M15,19c-3.86,0-7,3.141-7,7s3.14,7,7,7s7-3.141,7-7S18.86,19,15,19z M15,31c-2.757,0-5-2.243-5-5s2.243-5,5-5s5,2.243,5,5
	S17.757,31,15,31z"/>
<path d="M14,25h-2v2h3c0.552,0,1-0.447,1-1v-4h-2V25z"/>
<rect x="10" y="38" width="2" height="7"/>
<rect x="14" y="38" width="2" height="7"/>
<rect x="18" y="38" width="2" height="7"/>
<rect x="10" y="47" width="2" height="8"/>
<rect x="14" y="47" width="2" height="8"/>
<rect x="18" y="47" width="2" height="8"/>
<rect x="10" y="57" width="2" height="3"/>
<rect x="14" y="57" width="2" height="3"/>
<rect x="18" y="57" width="2" height="3"/>
<path d="M56.12,41.976C56.613,41.914,57,41.51,57,41v-4c0-0.553-0.448-1-1-1h-2.126l-3.119-23.134C50.689,12.37,50.265,12,49.765,12
	h-1.011l-1.793-6.274C46.839,5.296,46.446,5,46,5V0h-2v5c-0.446,0-0.839,0.296-0.961,0.726L41.246,12h-1.011
	c-0.5,0-0.924,0.37-0.991,0.866L36.126,36H34c-0.552,0-1,0.447-1,1v4c0,0.51,0.387,0.914,0.88,0.976L28.243,62H26v2h3h5.677H38v-2
	h-2.262c0.517-4.493,4.471-8,9.262-8s8.744,3.507,9.262,8H52v2h3.323H61h3v-2h-2.243L56.12,41.976z M53.713,56H56l-1.172,1.563
	C54.502,57.01,54.129,56.488,53.713,56z M54.414,54l2.352-2.352L57.428,54H54.414z M35.172,57.563L34,56h2.287
	C35.871,56.488,35.498,57.01,35.172,57.563z M32.572,54l0.662-2.352L35.586,54H32.572z M31.87,56.494L33,58h-1.554L31.87,56.494z
	 M54.612,44H35.388l0.563-2h18.099L54.612,44z M34.825,46h20.351l0.563,2H34.262L34.825,46z M58.13,56.494L58.554,58H57
	L58.13,56.494z M44.754,7h0.491l1.429,5h-3.349L44.754,7z M41.109,14H42h6h0.891l2.965,22H49.9l-1.906-18.104
	C47.941,17.387,47.512,17,47,17h-4c-0.512,0-0.941,0.387-0.995,0.896L40.1,36h-1.956L41.109,14z M47.889,36h-5.778l1.79-17H46.1
	L47.889,36z M35,38h2h4h8h4h2v2h-0.193H35.193H35V38z M30.32,62l0.563-2h3.224c-0.188,0.645-0.319,1.313-0.383,2H30.32z
	 M38.455,54.041L34.414,50h21.172l-4.041,4.041C49.694,52.762,47.439,52,45,52S40.306,52.762,38.455,54.041z M56.276,62
	c-0.064-0.687-0.195-1.355-0.383-2h3.224l0.563,2H56.276z"/>
<rect x="62" y="8" width="2" height="2"/>
<rect x="58" y="8" width="2" height="2"/>
<rect x="62" y="4" width="2" height="2"/>
<rect x="58" y="4" width="2" height="2"/>
<rect x="54" y="4" width="2" height="2"/>
<rect x="62" width="2" height="2"/>
<rect x="58" width="2" height="2"/>
<rect x="54" width="2" height="2"/>
<rect x="50" width="2" height="2"/>
<rect x="58" y="21" width="6" height="2"/>
<rect y="58" width="2" height="2"/>
<rect y="54" width="2" height="2"/>
<rect y="50" width="2" height="2"/>
<rect y="8" width="2" height="2"/>
<rect y="4" width="2" height="2"/>
<rect x="4" y="4" width="2" height="2"/>
<rect width="2" height="2"/>
<rect x="4" width="2" height="2"/>
<rect x="8" width="2" height="2"/>
<rect x="29" y="1" width="2" height="4"/>
<rect x="29" y="9" width="2" height="4"/>
<rect x="32" y="6" width="4" height="2"/>
<rect x="24" y="6" width="4" height="2"/>
<rect x="53" y="14" width="11" height="2"/>
</svg>
