<?xml version="1.0" encoding="UTF-8" standalone="no"?> <svg xmlns="http://www.w3.org/2000/svg" xmlns:xlink="http://www.w3.org/1999/xlink" viewBox="0 0 64 64"><defs><style></style></defs><g id="Layer_75" data-name="Layer 75"><path class="cls-1" d="M60,51.48a6.52,6.52,0,0,0-4.89,2.24c-.83.8-1.2,1.12-2.12,1.12-1.09.09-1.84-.91-2.74-1.7l3.62-9.39a2,2,0,0,0-.94-2.49l-3.72-2V20.39a2,2,0,0,0-2-2H34V15.05h7a2,2,0,0,0,2-2V7.16a2,2,0,0,0-2-2H32a2,2,0,0,0-2,2V18.39H16.79a2,2,0,0,0-2,2V39.3l-3.72,2a2,2,0,0,0-.94,2.49l3.61,9.38c-.89.79-1.65,1.8-2.74,1.71-.91,0-1.28-.32-2.12-1.12A6.49,6.49,0,0,0,4,51.48a2,2,0,0,0,0,4c.91,0,1.28.32,2.11,1.12a6.45,6.45,0,0,0,9.77,0c1.4-1.52,2.83-1.52,4.23,0a6.46,6.46,0,0,0,9.77,0c1.4-1.52,2.82-1.52,4.22,0a6.45,6.45,0,0,0,9.77,0c.83-.8,1.21-1.12,2.12-1.12s1.28.32,2.12,1.12a6.45,6.45,0,0,0,9.77,0c.83-.8,1.21-1.12,2.12-1.12A2,2,0,0,0,60,51.48ZM39,11.05H34V9.16h5ZM18.79,22.39H45.21V37.2L32.93,30.73a2,2,0,0,0-1.86,0L18.79,37.2ZM41.1,53.72c-1.39,1.52-2.83,1.52-4.23,0a6.44,6.44,0,0,0-9.76,0c-.84.8-1.21,1.12-2.12,1.12s-1.28-.32-2.11-1.12a6.58,6.58,0,0,0-5.47-2.2L14.5,44,32,34.76,49.5,44l-2.91,7.55A6.56,6.56,0,0,0,41.1,53.72Z"/></g></svg>