<?xml version="1.0" encoding="UTF-8" standalone="no"?> <svg xmlns="http://www.w3.org/2000/svg" xmlns:xlink="http://www.w3.org/1999/xlink" viewBox="0 0 64 64"><defs><style></style></defs><g id="Layer_70" data-name="Layer 70"><path class="cls-1" d="M61.34,8.17c.06-5-6.19-7.23-9.57-3.73l-5.72,5.73L17.36,7.3a2,2,0,0,0-1.61.57l-4.5,4.51a2,2,0,0,0-.52,1.94,2,2,0,0,0,1.43,1.41l22.53,5.79-10,10L8.14,29.21a2,2,0,0,0-1.69.56l-3.8,3.8a2,2,0,0,0,.86,3.33l18.28,5.31L27.1,60.49a2,2,0,0,0,3.33.86l3.8-3.8a2,2,0,0,0,.56-1.69L32.44,39.35l10-10,5.79,22.53a2,2,0,0,0,1.41,1.43,2,2,0,0,0,1.94-.52l4.51-4.5a2,2,0,0,0,.57-1.61L53.83,18l5.89-5.89A5.47,5.47,0,0,0,61.34,8.17ZM56.9,9.24c-.08.14-7.3,7.12-6.95,7.12a2.11,2.11,0,0,0-.19,1.05l2.87,28.68-1.36,1.36L45.48,24.92a2.08,2.08,0,0,0-1.22-1.37,2,2,0,0,0-2.13.45L28.9,37.23a2.09,2.09,0,0,0-.56,1.7l2.35,16.5-.69.7L25.33,40a2,2,0,0,0-.5-.83,2.13,2.13,0,0,0-.87-.54L7.87,34l.7-.69,16.5,2.35a2.09,2.09,0,0,0,1.7-.56L40,21.87a2,2,0,0,0-.92-3.35L16.55,12.73l1.36-1.36,28.68,2.87a2,2,0,0,0,1.61-.58l6.4-6.39A1.82,1.82,0,0,1,56,6.73,1.47,1.47,0,0,1,56.9,9.24Z"/></g></svg>