<?xml version="1.0" encoding="iso-8859-1"?>
<!-- Generator: Adobe Illustrator 21.0.0, SVG Export Plug-In . SVG Version: 6.00 Build 0)  -->
<svg version="1.1" id="camping-travel-recreational-tent"
	 xmlns="http://www.w3.org/2000/svg" xmlns:xlink="http://www.w3.org/1999/xlink" x="0px" y="0px" viewBox="0 0 64 64"
	 style="enable-background:new 0 0 64 64;" xml:space="preserve">
<path d="M48.895,32.553C48.725,32.214,48.379,32,48,32H16c-0.284,0-0.546,0.125-0.733,0.33c-0.002,0.002-0.003,0.004-0.004,0.005
	c-0.04,0.044-0.081,0.088-0.113,0.139c-0.009,0.015-0.013,0.032-0.021,0.047c-0.006,0.011-0.017,0.019-0.022,0.031l-15,30
	c-0.155,0.31-0.138,0.678,0.044,0.973C0.332,63.82,0.653,64,1,64h7h16h7h32c0.347,0,0.668-0.18,0.851-0.474
	c0.182-0.295,0.199-0.663,0.044-0.973L48.895,32.553z M9.618,62L16,49.236L22.382,62H9.618z M24.618,62l-7.724-15.447
	c-0.339-0.678-1.45-0.678-1.789,0L7.382,62H2.618L16,35.236L29.382,62H24.618z M31.618,62l-14-28h29.764l14,28H31.618z"/>
<path d="M7,10h10c0.551,0,1,0.449,1,1s-0.449,1-1,1h-3c-1.654,0-3,1.346-3,3s1.346,3,3,3h23c1.654,0,3-1.346,3-3s-1.346-3-3-3H25
	c-0.551,0-1-0.449-1-1s0.449-1,1-1h2c1.654,0,3-1.346,3-3s-1.346-3-3-3H7C5.346,4,4,5.346,4,7S5.346,10,7,10z M7,6h20
	c0.551,0,1,0.449,1,1s-0.449,1-1,1h-2c-1.654,0-3,1.346-3,3s1.346,3,3,3h12c0.551,0,1,0.449,1,1s-0.449,1-1,1H14
	c-0.551,0-1-0.449-1-1s0.449-1,1-1h3c1.654,0,3-1.346,3-3s-1.346-3-3-3H7C6.449,8,6,7.551,6,7S6.449,6,7,6z"/>
<path d="M50.5,10C49.673,10,49,9.327,49,8.5S49.673,7,50.5,7h6C58.43,7,60,5.43,60,3.5S58.43,0,56.5,0H31v2h25.5
	C57.327,2,58,2.673,58,3.5S57.327,5,56.5,5h-6C48.57,5,47,6.57,47,8.5s1.57,3.5,3.5,3.5H64v-2H50.5z"/>
<path d="M25,26c0,2.206,1.794,4,4,4h10v-2H29c-1.103,0-2-0.897-2-2c0-2.206-1.794-4-4-4H9v2h14C24.103,24,25,24.897,25,26z"/>
<path d="M42,22h8c1.103,0,2,0.897,2,2c0,2.206,1.794,4,4,4h6v-2h-6c-1.103,0-2-0.897-2-2c0-2.206-1.794-4-4-4h-8V22z"/>
<rect x="48" y="58" width="2" height="2"/>
<rect x="52" y="58" width="2" height="2"/>
<rect x="56" y="58" width="2" height="2"/>
<rect x="48" y="54" width="2" height="2"/>
<rect x="52" y="54" width="2" height="2"/>
<rect x="40" y="58" width="2" height="2"/>
<rect x="44" y="58" width="2" height="2"/>
<rect x="40" y="54" width="2" height="2"/>
<rect x="44" y="54" width="2" height="2"/>
<rect x="57" y="15" width="2" height="2"/>
<rect x="49" y="15" width="2" height="2"/>
<rect x="53" y="15" width="2" height="2"/>
<rect x="8" y="33" width="2" height="2"/>
<rect y="33" width="2" height="2"/>
<rect x="4" y="33" width="2" height="2"/>
</svg>
