<?xml version="1.0" encoding="iso-8859-1"?>
<!-- Generator: Adobe Illustrator 21.0.0, SVG Export Plug-In . SVG Version: 6.00 Build 0)  -->
<svg version="1.1" id="surf-summer-season-beach" xmlns="http://www.w3.org/2000/svg" xmlns:xlink="http://www.w3.org/1999/xlink"
	 x="0px" y="0px" viewBox="0 0 64.001 64" style="enable-background:new 0 0 64.001 64;" xml:space="preserve">
<path d="M57.58,53.886c1.979-3.177,3.683-7.235,4.837-11.575c1.402-5.283,1.896-10.485,1.392-14.647
	c-0.544-4.473-2.213-7.299-4.7-7.96c-4.868-1.286-11.066,6.604-14.089,17.986c-1.04,3.917-1.575,7.781-1.571,11.268
	c-1.847-0.322-3.78-0.566-5.782-0.728c-0.478-3.769-1.47-7.876-2.897-11.943c-3.178-9.057-7.868-16.391-12.239-19.141
	c-0.467-0.294-1.009-0.328-1.481-0.095c-0.863,0.426-1.386,1.841-1.703,3.422c-2.129-2.634-2.884-2.597-3.235-2.583
	c-0.422,0.021-0.785,0.242-0.997,0.609c-2.498,4.32-1.801,13.995,1.736,24.075c0.803,2.286,1.719,4.483,2.72,6.561
	C7.971,51.367,0,56.666,0,63c0,0.553,0.447,1,1,1h62c0.553,0,1-0.447,1-1C64,59.543,61.622,56.396,57.58,53.886z M60.483,41.797
	c-1.111,4.183-2.744,8.084-4.636,11.103c-0.623-0.324-1.279-0.633-1.96-0.93l7.209-27.316c0.324,0.912,0.573,1.997,0.725,3.25
	C62.299,31.819,61.823,36.754,60.483,41.797z M58.595,21.637c0.383,0.102,0.739,0.315,1.068,0.616l-7.645,28.967
	c-0.615-0.228-1.245-0.448-1.897-0.655l7.647-28.975C58.056,21.564,58.335,21.567,58.595,21.637z M46.953,38.203
	c2.06-7.76,5.503-13.334,8.469-15.56l-7.221,27.362c-0.89-0.24-1.808-0.461-2.753-0.661C45.401,45.933,45.917,42.101,46.953,38.203z
	 M18.736,41.912c-3.099-8.831-3.975-17.49-2.264-21.65c0.705,0.689,1.832,2.084,2.713,3.319c0.243,0.339,0.674,0.488,1.075,0.385
	c0.403-0.109,0.696-0.458,0.735-0.874c0.147-1.601,0.513-3.306,0.835-4.011c3.854,2.679,8.154,9.61,11.052,17.867
	c1.332,3.796,2.276,7.623,2.755,11.146C34.445,48.034,33.233,48,32,48c-3.653,0-7.14,0.277-10.385,0.783
	C20.548,46.623,19.581,44.316,18.736,41.912z M2.093,62c0.954-5.15,9.198-9.568,20.13-11.262c0.069-0.011,0.139-0.02,0.209-0.031
	c0.71-0.107,1.433-0.202,2.164-0.286c0.465-0.052,0.931-0.103,1.401-0.145c0.336-0.031,0.675-0.058,1.014-0.084
	c0.707-0.053,1.417-0.1,2.132-0.131c0.107-0.005,0.215-0.006,0.322-0.01C30.306,50.02,31.15,50,32,50
	c0.685,0,1.369,0.015,2.052,0.035c0.186,0.006,0.372,0.011,0.558,0.018c0.595,0.023,1.187,0.054,1.774,0.093
	C49.907,51.048,60.802,56.033,61.907,62H2.093z"/>
<path d="M40,20c3.859,0,7-3.141,7-7s-3.141-7-7-7s-7,3.141-7,7S36.141,20,40,20z M40,8c2.757,0,5,2.243,5,5s-2.243,5-5,5
	s-5-2.243-5-5S37.243,8,40,8z"/>
<rect x="39" width="2" height="4"/>
<rect x="39" y="22" width="2" height="4"/>
<rect x="49" y="12" width="4" height="2"/>
<rect x="27" y="12" width="4" height="2"/>
<rect x="46.778" y="18.779" transform="matrix(0.7071 -0.7071 0.7071 0.7071 -0.6985 39.8702)" width="2" height="4"/>
<rect x="31.222" y="3.222" transform="matrix(0.7071 -0.7071 0.7071 0.7071 5.7452 24.3136)" width="2" height="4"/>
<rect x="30.222" y="19.778" transform="matrix(0.7071 -0.7071 0.7071 0.7071 -5.255 28.87)" width="4" height="2"/>
<rect x="45.779" y="4.222" transform="matrix(0.7071 -0.7071 0.7071 0.7071 10.3017 35.3138)" width="4" height="2"/>
<path d="M3,6h3c0.552,0,1,0.448,1,1S6.552,8,6,8c-1.654,0-3,1.346-3,3s1.346,3,3,3h13c1.654,0,3-1.346,3-3s-1.346-3-3-3h-5
	c-0.552,0-1-0.448-1-1s0.448-1,1-1h1c1.654,0,3-1.346,3-3s-1.346-3-3-3H3C1.346,0,0,1.346,0,3S1.346,6,3,6z M3,2h12
	c0.552,0,1,0.448,1,1s-0.448,1-1,1h-1c-1.654,0-3,1.346-3,3s1.346,3,3,3h5c0.552,0,1,0.448,1,1s-0.448,1-1,1H6c-0.552,0-1-0.448-1-1
	s0.448-1,1-1c1.654,0,3-1.346,3-3S7.654,4,6,4H3C2.448,4,2,3.552,2,3S2.448,2,3,2z"/>
<rect x="30" y="44" width="2" height="2"/>
<rect x="26" y="44" width="2" height="2"/>
<rect x="22" y="44" width="2" height="2"/>
<rect x="30" y="40" width="2" height="2"/>
<rect x="26" y="40" width="2" height="2"/>
<rect x="26" y="36" width="2" height="2"/>
<rect x="22" y="40" width="2" height="2"/>
<rect x="43" y="58" width="2" height="2"/>
<rect x="39" y="58" width="2" height="2"/>
<rect x="35" y="58" width="2" height="2"/>
<rect x="55" y="58" width="2" height="2"/>
<rect x="51" y="58" width="2" height="2"/>
<rect x="47" y="58" width="2" height="2"/>
<rect x="43" y="54" width="2" height="2"/>
<rect x="39" y="54" width="2" height="2"/>
<rect x="35" y="54" width="2" height="2"/>
<rect x="7" y="37" width="2" height="4"/>
<rect x="7" y="45" width="2" height="4"/>
<rect x="10" y="42" width="4" height="2"/>
<rect x="2" y="42" width="4" height="2"/>
<rect x="62" y="8" width="2" height="2"/>
<rect x="62" y="12" width="2" height="2"/>
<rect x="58" y="8" width="2" height="2"/>
<rect x="62" y="4" width="2" height="2"/>
<rect x="58" y="4" width="2" height="2"/>
<rect x="62" width="2" height="2"/>
<rect x="58" width="2" height="2"/>
<rect x="54" width="2" height="2"/>
</svg>
