<?xml version="1.0" encoding="UTF-8" standalone="no"?> <svg xmlns="http://www.w3.org/2000/svg" xmlns:xlink="http://www.w3.org/1999/xlink" viewBox="0 0 64 64"><defs><style></style></defs><g id="Layer_46" data-name="Layer 46"><path class="cls-1" d="M61.55,23.34A2,2,0,0,0,60,22.6H54.72L49.84,5.88a2,2,0,0,0-1.92-1.44H16.08a2,2,0,0,0-1.92,1.44L9.28,22.6H4A2,2,0,0,0,2,25L9,58a2,2,0,0,0,2,1.59H53A2,2,0,0,0,55,58l7-33A2,2,0,0,0,61.55,23.34Zm-44-14.9H46.42L50.56,22.6H13.44Zm33.8,47.12H12.62l-6.15-29H57.53Z"/><path class="cls-2" d="M19.93,32.51a2,2,0,0,0-2,2V46.94a2,2,0,0,0,4,0V34.51A2,2,0,0,0,19.93,32.51Z"/><path class="cls-3" d="M32,32.51a2,2,0,0,0-2,2V46.94a2,2,0,0,0,4,0V34.51A2,2,0,0,0,32,32.51Z"/><path class="cls-4" d="M44.07,32.51a2,2,0,0,0-2,2V46.94a2,2,0,0,0,4,0V34.51A2,2,0,0,0,44.07,32.51Z"/></g></svg>